# xmcd
#
# Track frame offsets:
#	150
#	10533
#	21038
#	33562
#	44437
#	53329
#	64257
#	72278
#	87150
#	99033
#	110578
#	122607
#	131464
#	143462
#	153534
#	164760
#	175345
#	184336
#	193053
#	206779
#
# Disc length: 2908 seconds
#
# Revision: 1
# Processed by: cddbd v1.5.1PL2 Copyright (c) Steve Scherf et al.
# Submitted via: audiograbber 1.83.01
#
DISCID=100b5a14
DTITLE=Smoky Mountain Choir/Roy Clark - Hymns From the Old Country Church 2
DYEAR=1900
DGENRE=Gospel
TTITLE0=I've Got A Mansion
TTITLE1=When The Roll Is Called Up Yonder
TTITLE2=Amazing Grace
TTITLE3=O Come Angel Band
TTITLE4=I Am Bound for the Promised Land
TTITLE5=Tell Me The Story of Jesus
TTITLE6=Heaven's Jubilee
TTITLE7=I Am Thine O Lord
TTITLE8=Send The Light
TTITLE9=He's Got The Whole World In His Hand
TTITLE10=O Happy Day
TTITLE11=Crown Him With Many Crowns
TTITLE12=Just Over In The Glory Land
TTITLE13=The Lilly of the Valley
TTITLE14=Only Trust Him
TTITLE15=By 'n By
TTITLE16=Church in the Wildwood
TTITLE17=I Will Sing The Wondrous Story
TTITLE18=Tis So Sweet
TTITLE19=Give Me Oil In My Lamp
EXTD=
EXTT0=
EXTT1=
EXTT2=
EXTT3=
EXTT4=
EXTT5=
EXTT6=
EXTT7=
EXTT8=
EXTT9=
EXTT10=
EXTT11=
EXTT12=
EXTT13=
EXTT14=
EXTT15=
EXTT16=
EXTT17=
EXTT18=
EXTT19=
PLAYORDER=
